<svg width="189" height="91" viewBox="0 0 189 91" fill="none" xmlns="http://www.w3.org/2000/svg">
<g filter="url(#filter0_b_12_1)">
<path d="M182.567 73.8125L187 80.375L153.31 77.1875C149.715 77.1903 147.805 77.9468 144.444 79.625L141.932 83.9375V89L139.125 83.9375C139.759 78.5045 140.512 76.7284 141.932 73.8125V71.75L113.562 65.9375C113.562 65.9375 93.7612 59.375 85.6342 59.375C77.5072 59.375 66.8665 59.3445 57.8546 59.375C48.8428 59.4055 42.0347 60.1132 33.0303 62L2 71.75L33.0303 51.125C40.5282 48.0707 44.1027 45.9528 55.6382 45.5L74.4042 47.375L106.764 55.8125C120.006 61.0802 127.936 62.6841 141.932 65.9375C141.932 65.9375 143.705 67.0625 145.331 65.9375C146.956 64.8125 148.286 65.9375 148.286 65.9375L153.31 63.6875C153.31 63.6875 154.788 62 154.788 59.375C154.788 56.75 155.708 55.4896 154.788 53L157.595 55.8125C158.176 59.2662 158.197 61.0049 157.595 63.6875L154.788 68.75V71.75L172.667 73.8125C174.865 71.5967 175.97 71.1533 177.691 71.75L182.567 73.8125Z" fill="white"/>
<path d="M182.567 73.8125L187 80.375L153.31 77.1875C149.715 77.1903 147.805 77.9468 144.444 79.625L141.932 83.9375V89L139.125 83.9375C139.759 78.5045 140.512 76.7284 141.932 73.8125V71.75L113.562 65.9375C113.562 65.9375 93.7612 59.375 85.6342 59.375C77.5072 59.375 66.8665 59.3445 57.8546 59.375C48.8428 59.4055 42.0347 60.1132 33.0303 62L2 71.75L33.0303 51.125C40.5282 48.0707 44.1027 45.9528 55.6382 45.5L74.4042 47.375L106.764 55.8125C120.006 61.0802 127.936 62.6841 141.932 65.9375C141.932 65.9375 143.705 67.0625 145.331 65.9375C146.956 64.8125 148.286 65.9375 148.286 65.9375L153.31 63.6875C153.31 63.6875 154.788 62 154.788 59.375C154.788 56.75 155.708 55.4896 154.788 53L157.595 55.8125C158.176 59.2662 158.197 61.0049 157.595 63.6875L154.788 68.75V71.75L172.667 73.8125C174.865 71.5967 175.97 71.1533 177.691 71.75L182.567 73.8125Z" stroke="white"/>
</g>
<g filter="url(#filter1_b_12_1)">
<path d="M6.43291 17.1875L2 10.625L35.6901 13.8125C39.2847 13.8097 41.1949 13.0532 44.5559 11.375L47.0679 7.0625V2L49.8754 7.0625C49.241 12.4955 48.4884 14.2716 47.0679 17.1875V19.25L75.4385 25.0625C75.4385 25.0625 95.2388 31.625 103.366 31.625C111.493 31.625 122.134 31.6555 131.145 31.625C140.157 31.5945 146.965 30.8868 155.97 29L187 19.25L155.97 39.875C148.472 42.9293 144.897 45.0472 133.362 45.5L114.596 43.625L82.2356 35.1875C68.9941 29.9198 61.0643 28.3159 47.0679 25.0625C47.0679 25.0625 45.2947 23.9375 43.6693 25.0625C42.0439 26.1875 40.7141 25.0625 40.7141 25.0625L35.6901 27.3125C35.6901 27.3125 34.2125 29 34.2125 31.625C34.2125 34.25 33.2921 35.5104 34.2125 38L31.405 35.1875C30.8236 31.7338 30.8026 29.9951 31.405 27.3125L34.2125 22.25V19.25L16.3331 17.1875C14.1347 19.4033 13.0299 19.8467 11.3091 19.25L6.43291 17.1875Z" fill="white"/>
<path d="M6.43291 17.1875L2 10.625L35.6901 13.8125C39.2847 13.8097 41.1949 13.0532 44.5559 11.375L47.0679 7.0625V2L49.8754 7.0625C49.241 12.4955 48.4884 14.2716 47.0679 17.1875V19.25L75.4385 25.0625C75.4385 25.0625 95.2388 31.625 103.366 31.625C111.493 31.625 122.134 31.6555 131.145 31.625C140.157 31.5945 146.965 30.8868 155.97 29L187 19.25L155.97 39.875C148.472 42.9293 144.897 45.0472 133.362 45.5L114.596 43.625L82.2356 35.1875C68.9941 29.9198 61.0643 28.3159 47.0679 25.0625C47.0679 25.0625 45.2947 23.9375 43.6693 25.0625C42.0439 26.1875 40.7141 25.0625 40.7141 25.0625L35.6901 27.3125C35.6901 27.3125 34.2125 29 34.2125 31.625C34.2125 34.25 33.2921 35.5104 34.2125 38L31.405 35.1875C30.8236 31.7338 30.8026 29.9951 31.405 27.3125L34.2125 22.25V19.25L16.3331 17.1875C14.1347 19.4033 13.0299 19.8467 11.3091 19.25L6.43291 17.1875Z" stroke="white"/>
</g>
<defs>
<filter id="filter0_b_12_1" x="-2.27678" y="40.999" width="194.284" height="53.9335" filterUnits="userSpaceOnUse" color-interpolation-filters="sRGB">
<feFlood flood-opacity="0" result="BackgroundImageFix"/>
<feGaussianBlur in="BackgroundImage" stdDeviation="2"/>
<feComposite in2="SourceAlpha" operator="in" result="effect1_backgroundBlur_12_1"/>
<feBlend mode="normal" in="SourceGraphic" in2="effect1_backgroundBlur_12_1" result="shape"/>
</filter>
<filter id="filter1_b_12_1" x="-3.00699" y="-3.93256" width="194.284" height="53.9335" filterUnits="userSpaceOnUse" color-interpolation-filters="sRGB">
<feFlood flood-opacity="0" result="BackgroundImageFix"/>
<feGaussianBlur in="BackgroundImage" stdDeviation="2"/>
<feComposite in2="SourceAlpha" operator="in" result="effect1_backgroundBlur_12_1"/>
<feBlend mode="normal" in="SourceGraphic" in2="effect1_backgroundBlur_12_1" result="shape"/>
</filter>
</defs>
</svg>
