<svg width="584" height="154" viewBox="0 0 584 154" fill="none" xmlns="http://www.w3.org/2000/svg">
<path d="M341.352 50.1377H303.25C301.955 36.7899 299.534 31.3761 286.685 32.2169C273.835 33.0576 286.685 50.1377 286.685 50.1377C311.463 52.6723 324.354 56.7812 341.352 80.1984V108.525C334.044 128.313 327.797 135.797 314.846 146.101C289.588 153.948 274.843 153.985 247.479 146.101C232.208 134.594 230.101 122.011 230.913 95.2287H269.014C271.318 119.641 279.91 122.399 296.072 116.04C305.28 105.113 297.973 98.3779 265.149 85.4012C249.384 82.1182 243.046 74.4947 236.435 50.1377C239.973 30.1442 243.671 24.1153 251.344 16.6084L309.325 1C327.291 4.50338 334.665 9.86909 341.352 27.5921V50.1377Z" fill="white" stroke="black" stroke-opacity="0.1"/>
<path d="M383.225 9.05334H347.756C343.326 53.9317 342.681 73.8496 341.352 109.887L377.313 100.284L383.225 9.05334Z" fill="white" stroke="black" stroke-opacity="0.1"/>
<path d="M451.601 81.2291L412.214 89.7204C416.256 61.264 417.791 43.4019 419.566 9.05334H460.529L451.601 81.2291Z" fill="white" stroke="black" stroke-opacity="0.1"/>
<path d="M378.393 108.108L341.352 119.377C343.819 137.305 350.512 143.28 364.972 152H417.045C441.391 136.901 449.299 123.592 451.402 89.7204L412.75 99.2106C402.876 116.038 395.591 118.884 378.393 108.108Z" fill="white" stroke="black" stroke-opacity="0.1"/>
<path d="M58.4411 47.5819L43.4098 9.05334H1L36.4309 90.0192V111.796L77.2302 98.9534V90.0192L130.913 9.05334H84.209L58.4411 47.5819Z" fill="white" stroke="black" stroke-opacity="0.1"/>
<path d="M36.4309 152V124.639L78.3039 111.796V152H36.4309Z" fill="white" stroke="black" stroke-opacity="0.1"/>
<path d="M141.65 56.8876L159.238 9.05334H210.403L215.733 43.5385L182.986 49.6569L180.839 39.0888L177.081 49.6569L141.65 56.8876Z" fill="white" stroke="black" stroke-opacity="0.1"/>
<path d="M106.219 152L141.65 63.5622L177.081 56.3314L165.808 92.4853H188.354L182.986 56.3314L215.733 50.2131L230.764 152H192.649V130.308H156.145L150.239 152H106.219Z" fill="white" stroke="black" stroke-opacity="0.1"/>
<path d="M460.529 67.7702C470.403 24.677 484.033 11.571 523.601 5.02667C554.359 5.62833 569.034 7.20906 582.396 38.308V77.591L541.239 86.3205C544.174 50.4263 542.004 36.9608 523.601 38.308C504.976 41.6706 499.013 57.9495 499.013 98.3236L460.529 106.508V67.7702Z" fill="white" stroke="black" stroke-opacity="0.1"/>
<path d="M498.479 105.416L460.529 113.6C475.421 140.677 489.419 154.43 523.601 152.338C554.154 147.484 572.241 121.784 582.931 83.5925L540.705 94.5045C537.498 125.058 512.91 133.242 498.479 105.416Z" fill="white" stroke="black" stroke-opacity="0.1"/>
</svg>
